<?xml version="1.0" encoding="UTF-8"?>
<svg width="14px" height="14px" viewBox="0 0 14 14" version="1.1" xmlns="http://www.w3.org/2000/svg" xmlns:xlink="http://www.w3.org/1999/xlink">
    <!-- Generator: sketchtool 52.5 (67469) - http://www.bohemiancoding.com/sketch -->
    <title>15C6178F-9E8B-402D-8EF0-CF6352626F61@1x</title>
    <desc>Created with sketchtool.</desc>
    <g id="Page-1" stroke="none" stroke-width="1" fill="none" fill-rule="evenodd">
        <g id="2.1.-Employee-details-2" transform="translate(-296.000000, -240.000000)" fill="#57B12E" fill-rule="nonzero">
            <g id="Content" transform="translate(150.000000, 144.000000)">
                <g id="Row-1" transform="translate(24.000000, 24.000000)">
                    <g id="Room" transform="translate(121.000000, 71.000000)">
                        <g id="Graphics-/-Icons-/-Home">
                            <g id="icons8-home-(1)" transform="translate(1.185185, 1.185185)">
                                <path d="M6.81481474,-1.09651657e-17 C6.66637479,9.67321835e-06 6.52383878,0.0581388537 6.41772741,0.161940558 L0.222945585,5.22868427 C0.215790637,5.23406334 0.208763867,5.23961082 0.201871168,5.24532207 L0.180796694,5.26306899 L0.180796694,5.2641781 C0.0656625034,5.37143703 0.000191790712,5.52165821 0,5.67901235 C0,5.99265554 0.25425804,6.24691358 0.567901228,6.24691358 L1.13580246,6.24691358 L1.13580246,12.4938272 C1.13580246,13.121358 1.64407406,13.6296296 2.27160491,13.6296296 L11.3580246,13.6296296 C11.9855554,13.6296296 12.493827,13.121358 12.493827,12.4938272 L12.493827,6.24691358 L13.0617282,6.24691358 C13.3753714,6.24691358 13.6296295,5.99265554 13.6296295,5.67901235 C13.6297454,5.5212725 13.5642492,5.37059092 13.448833,5.26306899 L13.4399596,5.25641375 C13.4275015,5.24512237 13.4145482,5.23438983 13.4011378,5.22424783 L12.493827,4.48220485 L12.493827,2.27160494 C12.493827,1.95812346 12.2394073,1.7037037 11.9259258,1.7037037 L11.3580246,1.7037037 C11.0445431,1.7037037 10.7901233,1.95812346 10.7901233,2.27160494 L10.7901233,3.08907213 L7.19970071,0.151957933 C7.09508151,0.0547037175 6.95765507,0.000445992483 6.81481474,-1.09651657e-17 Z M8.51851852,7.38271586 L10.7901234,7.38271586 L10.7901234,11.9259256 L8.51851852,11.9259256 L8.51851852,7.38271586 Z" id="Shape"></path>
                            </g>
                        </g>
                    </g>
                </g>
            </g>
        </g>
    </g>
</svg>