<?xml version="1.0" encoding="UTF-8"?>
<svg width="226px" height="48px" viewBox="0 0 226 48" version="1.1" xmlns="http://www.w3.org/2000/svg" xmlns:xlink="http://www.w3.org/1999/xlink">
    <!-- Generator: Sketch 52.5 (67469) - http://www.bohemiancoding.com/sketch -->
    <title>Logo@1x</title>
    <desc>Created with Sketch.</desc>
    <g id="Page-1" stroke="none" stroke-width="1" fill="none" fill-rule="evenodd">
        <g id="2.1.-Employee-details-1" transform="translate(-150.000000, -16.000000)">
            <g id="Top-bar">
                <g id="Logo" transform="translate(150.000000, 16.000000)">
                    <g id="Group" transform="translate(66.857143, 30.285714)" fill="#8A8580">
                        <path d="M5.82857143,7.94285714 L2.91428571,7.94285714 L2.4,9.31428571 L0.228571429,9.31428571 L3.31428571,1.31428571 L5.6,1.31428571 L8.62857143,9.31428571 L6.28571429,9.31428571 L5.82857143,7.94285714 Z M5.25714286,6.34285714 L4.34285714,3.77142857 L3.48571429,6.34285714 L5.25714286,6.34285714 Z" id="Shape" fill-rule="nonzero"></path>
                        <path d="M13.3142857,9.14285714 C12.8,9.37142857 12.4,9.42857143 12,9.42857143 C10.9714286,9.42857143 10.2857143,8.97142857 9.88571429,8.62857143 C9.37142857,8.11428571 9.08571429,7.42857143 9.08571429,6.62857143 C9.08571429,5.82857143 9.42857143,5.08571429 9.94285714,4.57142857 C10.4571429,4.11428571 11.2,3.77142857 12.1142857,3.77142857 C12.4571429,3.77142857 12.8571429,3.82857143 13.3714286,4.05714286 L13.3714286,5.65714286 C13.1428571,5.48571429 12.8,5.31428571 12.4,5.31428571 C11.9428571,5.31428571 11.6571429,5.48571429 11.4857143,5.71428571 C11.2,6 11.0857143,6.34285714 11.0857143,6.62857143 C11.0857143,6.91428571 11.2,7.25714286 11.4285714,7.54285714 C11.6,7.71428571 11.9428571,7.94285714 12.4,7.94285714 C12.6857143,7.94285714 13.0285714,7.88571429 13.3714286,7.6 L13.3714286,9.14285714 L13.3142857,9.14285714 Z" id="Path"></path>
                        <path d="M18.4571429,9.14285714 C17.9428571,9.37142857 17.5428571,9.42857143 17.1428571,9.42857143 C16.1142857,9.42857143 15.4285714,8.97142857 15.0285714,8.62857143 C14.5142857,8.11428571 14.2285714,7.42857143 14.2285714,6.62857143 C14.2285714,5.82857143 14.5714286,5.08571429 15.0857143,4.57142857 C15.6,4.11428571 16.3428571,3.77142857 17.2571429,3.77142857 C17.6,3.77142857 18,3.82857143 18.5142857,4.05714286 L18.5142857,5.65714286 C18.2857143,5.48571429 17.9428571,5.31428571 17.5428571,5.31428571 C17.0857143,5.31428571 16.8,5.48571429 16.6285714,5.71428571 C16.3428571,6 16.2285714,6.34285714 16.2285714,6.62857143 C16.2285714,6.91428571 16.3428571,7.25714286 16.5714286,7.54285714 C16.7428571,7.71428571 17.0857143,7.94285714 17.5428571,7.94285714 C17.8285714,7.94285714 18.1714286,7.88571429 18.5142857,7.6 L18.5142857,9.14285714 L18.4571429,9.14285714 Z" id="Path"></path>
                        <path d="M25.2571429,6.97142857 L21.2571429,6.97142857 C21.2571429,7.25714286 21.3714286,7.65714286 21.6,7.88571429 C21.7142857,8 21.9428571,8.17142857 22.4,8.17142857 C22.4571429,8.17142857 22.8,8.17142857 23.0285714,8 C23.1428571,7.94285714 23.2571429,7.82857143 23.3714286,7.65714286 L25.2,7.65714286 C25.1428571,7.94285714 24.9714286,8.4 24.5714286,8.74285714 C24.1714286,9.14285714 23.5428571,9.48571429 22.4,9.48571429 C21.7142857,9.48571429 20.8571429,9.31428571 20.1714286,8.68571429 C19.8285714,8.34285714 19.3714286,7.65714286 19.3714286,6.68571429 C19.3714286,5.77142857 19.7142857,5.08571429 20.1714286,4.62857143 C20.6285714,4.17142857 21.3142857,3.82857143 22.3428571,3.82857143 C22.9714286,3.82857143 23.7714286,3.94285714 24.4,4.57142857 C25.1428571,5.31428571 25.2571429,6.22857143 25.2571429,6.8 L25.2571429,6.97142857 Z M23.4857143,5.82857143 C23.4285714,5.6 23.3142857,5.37142857 23.2,5.25714286 C22.9714286,5.02857143 22.6285714,4.97142857 22.4,4.97142857 C22.0571429,4.97142857 21.8285714,5.02857143 21.6,5.25714286 C21.4857143,5.42857143 21.3714286,5.6 21.3142857,5.82857143 L23.4857143,5.82857143 Z" id="Shape" fill-rule="nonzero"></path>
                        <polygon id="Path" points="28.2857143 0.514285714 28.2857143 9.25714286 26.3428571 9.25714286 26.3428571 0.514285714 28.2857143 0.514285714"></polygon>
                        <path d="M35.2571429,6.97142857 L31.2571429,6.97142857 C31.2571429,7.25714286 31.3714286,7.65714286 31.6,7.88571429 C31.7142857,8 31.9428571,8.17142857 32.4,8.17142857 C32.4571429,8.17142857 32.8,8.17142857 33.0285714,8 C33.1428571,7.94285714 33.2571429,7.82857143 33.3714286,7.65714286 L35.2,7.65714286 C35.1428571,7.94285714 34.9714286,8.4 34.5714286,8.74285714 C34.1714286,9.14285714 33.5428571,9.48571429 32.4,9.48571429 C31.7142857,9.48571429 30.8571429,9.31428571 30.1714286,8.68571429 C29.8285714,8.34285714 29.3714286,7.65714286 29.3714286,6.68571429 C29.3714286,5.77142857 29.7142857,5.08571429 30.1714286,4.62857143 C30.6285714,4.17142857 31.3142857,3.82857143 32.3428571,3.82857143 C32.9714286,3.82857143 33.7714286,3.94285714 34.4,4.57142857 C35.1428571,5.31428571 35.2571429,6.22857143 35.2571429,6.8 L35.2571429,6.97142857 Z M33.4857143,5.82857143 C33.4285714,5.6 33.3142857,5.37142857 33.2,5.25714286 C32.9714286,5.02857143 32.6285714,4.97142857 32.4,4.97142857 C32.0571429,4.97142857 31.8285714,5.02857143 31.6,5.25714286 C31.4857143,5.42857143 31.3714286,5.6 31.3142857,5.82857143 L33.4857143,5.82857143 Z" id="Shape" fill-rule="nonzero"></path>
                        <path d="M36.3428571,3.94285714 L38.2857143,3.94285714 L38.2857143,4.8 C38.4571429,4.45714286 38.7428571,4.22857143 39.0285714,4.05714286 C39.3142857,3.88571429 39.6571429,3.82857143 40,3.82857143 C40.0571429,3.82857143 40.1142857,3.82857143 40.4,3.82857143 L40.4,5.65714286 C40.2857143,5.6 40.0571429,5.48571429 39.6,5.48571429 C39.3714286,5.48571429 39.0285714,5.54285714 38.7428571,5.77142857 C38.3428571,6.17142857 38.2857143,6.68571429 38.2857143,6.97142857 L38.2857143,9.25714286 L36.3428571,9.25714286 L36.3428571,3.94285714 Z" id="Path"></path>
                        <path d="M45.4285714,3.94285714 L47.3714286,3.94285714 L47.3714286,9.31428571 L45.4285714,9.31428571 L45.4285714,8.74285714 C44.9714286,9.37142857 44.2857143,9.48571429 43.7714286,9.48571429 C43.2,9.48571429 42.5142857,9.31428571 41.8285714,8.62857143 C41.3142857,8.05714286 41.0857143,7.48571429 41.0857143,6.68571429 C41.0857143,5.65714286 41.4857143,4.97142857 41.8857143,4.51428571 C42.3428571,4.05714286 43.0285714,3.77142857 43.8285714,3.77142857 C44.6857143,3.77142857 45.2,4.22857143 45.4285714,4.45714286 L45.4285714,3.94285714 Z M43.4285714,5.71428571 C43.1428571,5.94285714 43.0285714,6.28571429 43.0285714,6.57142857 C43.0285714,6.85714286 43.1428571,7.2 43.4285714,7.42857143 C43.6571429,7.6 43.9428571,7.77142857 44.2857143,7.77142857 C44.5714286,7.77142857 44.9142857,7.65714286 45.1428571,7.37142857 C45.3142857,7.2 45.4857143,6.91428571 45.4857143,6.51428571 C45.4857143,6.28571429 45.4285714,5.94285714 45.0857143,5.65714286 C44.9142857,5.48571429 44.6285714,5.31428571 44.2285714,5.31428571 C44,5.37142857 43.7142857,5.42857143 43.4285714,5.71428571 Z" id="Shape" fill-rule="nonzero"></path>
                        <polygon id="Path" points="50.8 5.48571429 50.8 9.25714286 48.8571429 9.25714286 48.8571429 5.48571429 48.2285714 5.48571429 48.2285714 3.88571429 48.8571429 3.88571429 48.8571429 2.11428571 50.8 2.11428571 50.8 3.88571429 51.8857143 3.88571429 51.8857143 5.48571429"></polygon>
                        <path d="M58.2857143,6.97142857 L54.2857143,6.97142857 C54.2857143,7.25714286 54.4,7.65714286 54.6285714,7.88571429 C54.7428571,8 54.9714286,8.17142857 55.4285714,8.17142857 C55.4857143,8.17142857 55.8285714,8.17142857 56.0571429,8 C56.1714286,7.94285714 56.2857143,7.82857143 56.4,7.65714286 L58.2285714,7.65714286 C58.1714286,7.94285714 58,8.4 57.6,8.74285714 C57.2,9.14285714 56.5714286,9.48571429 55.4285714,9.48571429 C54.7428571,9.48571429 53.8857143,9.31428571 53.2,8.68571429 C52.8571429,8.34285714 52.4,7.65714286 52.4,6.68571429 C52.4,5.77142857 52.7428571,5.08571429 53.2,4.62857143 C53.6571429,4.17142857 54.3428571,3.82857143 55.3714286,3.82857143 C56,3.82857143 56.8,3.94285714 57.4285714,4.57142857 C58.1714286,5.31428571 58.2857143,6.22857143 58.2857143,6.8 L58.2857143,6.97142857 Z M56.5142857,5.82857143 C56.4571429,5.6 56.3428571,5.37142857 56.2285714,5.25714286 C56,5.02857143 55.6,4.97142857 55.4285714,4.97142857 C55.0857143,4.97142857 54.8571429,5.02857143 54.6285714,5.25714286 C54.5142857,5.42857143 54.4,5.6 54.3428571,5.82857143 L56.5142857,5.82857143 Z" id="Shape" fill-rule="nonzero"></path>
                        <polygon id="Path" points="64.2857143 5.48571429 64.2857143 9.25714286 62.3428571 9.25714286 62.3428571 5.48571429 61.7142857 5.48571429 61.7142857 3.88571429 62.3428571 3.88571429 62.3428571 2.11428571 64.2857143 2.11428571 64.2857143 3.88571429 65.3714286 3.88571429 65.3714286 5.48571429"></polygon>
                        <path d="M66.1142857,0.514285714 L68.0571429,0.514285714 L68.0571429,4.57142857 C68.2285714,4.4 68.4571429,4.17142857 68.6857143,4.05714286 C69.0857143,3.82857143 69.4285714,3.77142857 69.7714286,3.77142857 C70.5142857,3.77142857 71.0285714,4 71.3714286,4.34285714 C71.8285714,4.8 71.8857143,5.31428571 71.8857143,5.82857143 L71.8857143,9.25714286 L69.9428571,9.25714286 L69.9428571,6.57142857 C69.9428571,6.17142857 69.9428571,5.77142857 69.7142857,5.54285714 C69.5428571,5.31428571 69.3142857,5.31428571 69.0857143,5.31428571 C68.8571429,5.31428571 68.6285714,5.37142857 68.4,5.54285714 C68.2285714,5.71428571 68.0571429,6 68.0571429,6.4 L68.0571429,9.25714286 L66.1142857,9.25714286 L66.1142857,0.514285714 Z" id="Path"></path>
                        <path d="M72.8571429,3.94285714 L74.8,3.94285714 L74.8,4.8 C74.9714286,4.45714286 75.2571429,4.22857143 75.5428571,4.05714286 C75.8285714,3.88571429 76.1714286,3.82857143 76.5142857,3.82857143 C76.5714286,3.82857143 76.6285714,3.82857143 76.9142857,3.82857143 L76.9142857,5.65714286 C76.8,5.6 76.5714286,5.48571429 76.1142857,5.48571429 C75.8857143,5.48571429 75.4857143,5.54285714 75.2571429,5.77142857 C74.8571429,6.17142857 74.8,6.68571429 74.8,6.97142857 L74.8,9.25714286 L72.8571429,9.25714286 L72.8571429,3.94285714 Z" id="Path"></path>
                        <path d="M82.9142857,8.57142857 C82.2285714,9.25714286 81.3714286,9.48571429 80.5142857,9.48571429 C79.7142857,9.48571429 78.8571429,9.31428571 78.1142857,8.57142857 C77.5428571,8 77.3142857,7.31428571 77.3142857,6.57142857 C77.3142857,5.6 77.7714286,4.97142857 78.1142857,4.62857143 C78.5714286,4.17142857 79.3142857,3.71428571 80.5142857,3.71428571 C81.7142857,3.71428571 82.4571429,4.17142857 82.9142857,4.62857143 C83.3142857,5.02857143 83.7142857,5.65714286 83.7142857,6.57142857 C83.7142857,7.31428571 83.4857143,8 82.9142857,8.57142857 Z M79.6571429,5.71428571 C79.4285714,5.94285714 79.2571429,6.28571429 79.2571429,6.57142857 C79.2571429,6.91428571 79.4285714,7.2 79.6571429,7.42857143 C79.8857143,7.65714286 80.1714286,7.77142857 80.5142857,7.77142857 C80.8,7.77142857 81.1428571,7.65714286 81.3714286,7.42857143 C81.6,7.2 81.7714286,6.91428571 81.7714286,6.57142857 C81.7714286,6.28571429 81.6571429,5.94285714 81.3714286,5.71428571 C81.1428571,5.48571429 80.8,5.37142857 80.5142857,5.37142857 C80.2285714,5.37142857 79.8857143,5.48571429 79.6571429,5.71428571 Z" id="Shape" fill-rule="nonzero"></path>
                        <path d="M86.7428571,3.94285714 L86.7428571,6.91428571 C86.7428571,7.14285714 86.8,7.48571429 87.0285714,7.71428571 C87.2,7.88571429 87.4857143,7.94285714 87.7142857,7.94285714 C87.9428571,7.94285714 88.1714286,7.94285714 88.4,7.71428571 C88.6285714,7.48571429 88.6857143,7.2 88.6857143,6.97142857 L88.6857143,4 L90.6285714,4 L90.6285714,7.37142857 C90.6285714,7.82857143 90.5714286,8.34285714 90.1142857,8.8 C89.4285714,9.48571429 88.5142857,9.54285714 87.7714286,9.54285714 C86.9714286,9.54285714 86,9.48571429 85.3714286,8.8 C84.9714286,8.34285714 84.8571429,7.88571429 84.8571429,7.37142857 L84.8571429,4 L86.7428571,4 L86.7428571,3.94285714 Z" id="Path"></path>
                        <path d="M97.9428571,3.94285714 L97.9428571,8.97142857 C97.9428571,9.77142857 97.8857143,10.5142857 97.2,11.2 C96.5142857,11.8857143 95.6,12.0571429 94.8571429,12.0571429 C93.8857143,12.0571429 93.0285714,11.8285714 92.3428571,11.0857143 C92.0571429,10.7428571 91.8285714,10.4571429 91.7714286,9.94285714 L93.8857143,9.94285714 C93.9428571,10.1714286 94.1714286,10.5142857 94.8,10.5142857 C95.0857143,10.5142857 95.4285714,10.4571429 95.6571429,10.2285714 C96,9.94285714 96.0571429,9.54285714 96.0571429,9.25714286 L96.0571429,8.74285714 C95.4285714,9.37142857 94.8571429,9.42857143 94.4571429,9.42857143 C93.4857143,9.42857143 92.8571429,9.02857143 92.4571429,8.68571429 C92,8.17142857 91.7142857,7.48571429 91.7142857,6.74285714 C91.7142857,5.88571429 92.0571429,5.14285714 92.5142857,4.62857143 C93.0285714,4.11428571 93.7714286,3.82857143 94.4571429,3.82857143 C94.8,3.82857143 95.4857143,3.88571429 96.0571429,4.51428571 L96.0571429,3.94285714 L97.9428571,3.94285714 Z M94.0571429,5.71428571 C93.7714286,6 93.6571429,6.34285714 93.6571429,6.57142857 C93.6571429,6.85714286 93.7714286,7.2 94.0571429,7.42857143 C94.2857143,7.65714286 94.6285714,7.77142857 94.9142857,7.77142857 C95.2,7.77142857 95.5428571,7.65714286 95.7714286,7.42857143 C96,7.2 96.1142857,6.85714286 96.1142857,6.57142857 C96.1142857,6.28571429 95.9428571,5.94285714 95.7142857,5.71428571 C95.4857143,5.48571429 95.2,5.37142857 94.8571429,5.37142857 C94.5714286,5.37142857 94.2857143,5.48571429 94.0571429,5.71428571 Z" id="Shape" fill-rule="nonzero"></path>
                        <path d="M99.2571429,0.514285714 L101.2,0.514285714 L101.2,4.57142857 C101.371429,4.4 101.6,4.17142857 101.828571,4.05714286 C102.228571,3.82857143 102.571429,3.77142857 102.914286,3.77142857 C103.657143,3.77142857 104.171429,4 104.514286,4.34285714 C104.971429,4.8 105.028571,5.31428571 105.028571,5.82857143 L105.028571,9.25714286 L103.085714,9.25714286 L103.085714,6.57142857 C103.085714,6.17142857 103.085714,5.77142857 102.857143,5.54285714 C102.685714,5.31428571 102.457143,5.31428571 102.228571,5.31428571 C102,5.31428571 101.771429,5.37142857 101.542857,5.54285714 C101.371429,5.71428571 101.2,6 101.2,6.4 L101.2,9.25714286 L99.2571429,9.25714286 L99.2571429,0.514285714 Z" id="Path"></path>
                        <path d="M109.428571,7.48571429 C109.657143,7.65714286 109.942857,7.77142857 110.171429,7.88571429 C110.4,7.94285714 110.685714,8 110.914286,8 C111.085714,8 111.314286,7.94285714 111.428571,7.82857143 C111.485714,7.77142857 111.542857,7.65714286 111.542857,7.6 C111.542857,7.54285714 111.542857,7.42857143 111.428571,7.37142857 C111.314286,7.25714286 111.142857,7.2 110.914286,7.2 L110.4,7.08571429 C110.114286,7.02857143 109.771429,6.91428571 109.485714,6.62857143 C109.257143,6.4 109.142857,6.11428571 109.142857,5.71428571 C109.142857,5.2 109.371429,4.74285714 109.657143,4.4 C110.057143,4 110.8,3.77142857 111.6,3.77142857 C112.4,3.77142857 113.028571,4 113.314286,4.11428571 L112.685714,5.31428571 C112.4,5.2 112,5.02857143 111.657143,5.02857143 C111.485714,5.02857143 111.314286,5.08571429 111.2,5.14285714 C111.085714,5.2 111.028571,5.31428571 111.028571,5.42857143 C111.028571,5.6 111.142857,5.65714286 111.257143,5.71428571 C111.428571,5.77142857 111.6,5.77142857 111.885714,5.88571429 L112.228571,6 C112.457143,6.05714286 112.857143,6.28571429 113.028571,6.4 C113.314286,6.62857143 113.428571,7.08571429 113.428571,7.48571429 C113.428571,8.11428571 113.142857,8.57142857 112.914286,8.8 C112.285714,9.42857143 111.371429,9.48571429 110.914286,9.48571429 C110.457143,9.48571429 109.657143,9.42857143 108.742857,8.85714286 L109.428571,7.48571429 Z" id="Path"></path>
                        <path d="M119.828571,8.57142857 C119.142857,9.25714286 118.285714,9.48571429 117.428571,9.48571429 C116.628571,9.48571429 115.771429,9.31428571 115.028571,8.57142857 C114.457143,8 114.228571,7.31428571 114.228571,6.57142857 C114.228571,5.6 114.685714,4.97142857 115.028571,4.62857143 C115.485714,4.17142857 116.228571,3.71428571 117.428571,3.71428571 C118.628571,3.71428571 119.371429,4.17142857 119.828571,4.62857143 C120.228571,5.02857143 120.628571,5.65714286 120.628571,6.57142857 C120.628571,7.31428571 120.4,8 119.828571,8.57142857 Z M116.571429,5.71428571 C116.342857,5.94285714 116.171429,6.28571429 116.171429,6.57142857 C116.171429,6.91428571 116.342857,7.2 116.571429,7.42857143 C116.8,7.65714286 117.085714,7.77142857 117.428571,7.77142857 C117.714286,7.77142857 118.057143,7.65714286 118.285714,7.42857143 C118.514286,7.2 118.685714,6.91428571 118.685714,6.57142857 C118.685714,6.28571429 118.571429,5.94285714 118.285714,5.71428571 C118.057143,5.48571429 117.714286,5.37142857 117.428571,5.37142857 C117.142857,5.37142857 116.8,5.48571429 116.571429,5.71428571 Z" id="Shape" fill-rule="nonzero"></path>
                        <path d="M123.828571,5.48571429 L123.828571,9.25714286 L121.885714,9.25714286 L121.885714,5.48571429 L121.2,5.48571429 L121.2,3.88571429 L121.885714,3.88571429 L121.885714,2.97142857 C121.885714,2.4 121.942857,1.77142857 122.4,1.2 C122.914286,0.514285714 123.6,0.342857143 124.285714,0.342857143 C124.628571,0.342857143 124.914286,0.4 125.2,0.514285714 L125.2,2.17142857 C124.914286,2 124.685714,2 124.628571,2 C124.342857,2 124.171429,2.11428571 124.114286,2.22857143 C123.885714,2.45714286 123.885714,2.85714286 123.885714,3.14285714 L123.885714,3.88571429 L125.257143,3.88571429 L125.257143,5.48571429 L123.828571,5.48571429 Z" id="Path"></path>
                        <polygon id="Path" points="128.285714 5.48571429 128.285714 9.25714286 126.342857 9.25714286 126.342857 5.48571429 125.714286 5.48571429 125.714286 3.88571429 126.342857 3.88571429 126.342857 2.11428571 128.285714 2.11428571 128.285714 3.88571429 129.371429 3.88571429 129.371429 5.48571429"></polygon>
                        <polygon id="Path" points="131.657143 3.94285714 132.914286 6.8 134.285714 3.94285714 135.485714 3.94285714 136.857143 6.85714286 138.228571 3.94285714 140.342857 3.94285714 137.542857 9.31428571 136.228571 9.31428571 134.857143 6.34285714 133.6 9.31428571 132.285714 9.31428571 129.542857 3.94285714"></polygon>
                        <path d="M144.685714,3.94285714 L146.628571,3.94285714 L146.628571,9.31428571 L144.685714,9.31428571 L144.685714,8.74285714 C144.228571,9.37142857 143.542857,9.48571429 143.028571,9.48571429 C142.457143,9.48571429 141.771429,9.31428571 141.085714,8.62857143 C140.571429,8.05714286 140.342857,7.48571429 140.342857,6.68571429 C140.342857,5.65714286 140.742857,4.97142857 141.142857,4.51428571 C141.6,4.05714286 142.285714,3.77142857 143.085714,3.77142857 C143.942857,3.77142857 144.457143,4.22857143 144.685714,4.45714286 L144.685714,3.94285714 Z M142.685714,5.71428571 C142.4,5.94285714 142.285714,6.28571429 142.285714,6.57142857 C142.285714,6.85714286 142.4,7.2 142.685714,7.42857143 C142.914286,7.6 143.2,7.77142857 143.542857,7.77142857 C143.828571,7.77142857 144.171429,7.65714286 144.4,7.37142857 C144.571429,7.2 144.742857,6.91428571 144.742857,6.51428571 C144.742857,6.28571429 144.685714,5.94285714 144.342857,5.65714286 C144.171429,5.48571429 143.885714,5.31428571 143.485714,5.31428571 C143.257143,5.37142857 142.971429,5.42857143 142.685714,5.71428571 Z" id="Shape" fill-rule="nonzero"></path>
                        <path d="M147.942857,3.94285714 L149.885714,3.94285714 L149.885714,4.8 C150.057143,4.45714286 150.342857,4.22857143 150.628571,4.05714286 C150.914286,3.88571429 151.257143,3.82857143 151.6,3.82857143 C151.657143,3.82857143 151.714286,3.82857143 152,3.82857143 L152,5.65714286 C151.885714,5.6 151.657143,5.48571429 151.2,5.48571429 C150.971429,5.48571429 150.571429,5.54285714 150.342857,5.77142857 C149.942857,6.17142857 149.885714,6.68571429 149.885714,6.97142857 L149.885714,9.25714286 L147.942857,9.25714286 L147.942857,3.94285714 Z" id="Path"></path>
                        <path d="M158.514286,6.97142857 L154.514286,6.97142857 C154.514286,7.25714286 154.628571,7.65714286 154.857143,7.88571429 C154.971429,8 155.2,8.17142857 155.657143,8.17142857 C155.714286,8.17142857 156.057143,8.17142857 156.285714,8 C156.4,7.94285714 156.514286,7.82857143 156.628571,7.65714286 L158.457143,7.65714286 C158.4,7.94285714 158.228571,8.4 157.828571,8.74285714 C157.428571,9.14285714 156.8,9.48571429 155.657143,9.48571429 C154.971429,9.48571429 154.114286,9.31428571 153.428571,8.68571429 C153.085714,8.34285714 152.628571,7.65714286 152.628571,6.68571429 C152.628571,5.77142857 152.971429,5.08571429 153.428571,4.62857143 C153.885714,4.17142857 154.571429,3.82857143 155.6,3.82857143 C156.228571,3.82857143 157.028571,3.94285714 157.657143,4.57142857 C158.4,5.31428571 158.514286,6.22857143 158.514286,6.8 L158.514286,6.97142857 Z M156.742857,5.82857143 C156.685714,5.6 156.571429,5.37142857 156.457143,5.25714286 C156.228571,5.02857143 155.885714,4.97142857 155.657143,4.97142857 C155.314286,4.97142857 155.085714,5.02857143 154.857143,5.25714286 C154.742857,5.42857143 154.628571,5.6 154.571429,5.82857143 L156.742857,5.82857143 Z" id="Shape" fill-rule="nonzero"></path>
                    </g>
                    <g id="Group">
                        <polygon id="Path" points="18.9714286 13.4285714 18.9714286 13.4285714 18.9714286 13.4285714 18.9142857 13.3714286 18.9142857 13.4285714 18.9142857 13.4285714"></polygon>
                        <path d="M24.5714286,17.8285714 L24.3428571,17.9428571" id="Path" fill="#57B12D"></path>
                        <path d="M24.3428571,35.5428571 L24.3428571,32.5142857" id="Path" fill="#A0D663"></path>
                        <path d="M24.3428571,10.3428571 L24.3428571,10.6857143" id="Path" fill="#AEDC7F"></path>
                        <polygon id="Path" fill="#AEDC7F" points="18.9714286 13.4285714 18.9714286 13.4285714 24.6285714 10.6857143 24.6285714 10.3428571 20.9714286 2.4"></polygon>
                        <polygon id="Path" fill="#359B2A" points="19.2571429 18.4 15.7142857 18.4 19.6 20.5142857 19.3714286 18.4"></polygon>
                        <polygon id="Path" fill="#A0D663" points="12.5714286 26.0571429 12.5714286 26.1142857 12.5714286 26.1142857 15.6571429 34.4 19.6 20.5142857"></polygon>
                        <polygon id="Path" fill="#57B12D" points="12.4571429 26.4 12.5714286 26.1142857 12.5714286 26.1142857 12.4571429 26.3428571"></polygon>
                        <polygon id="Path" fill="#57B12D" points="12.4571429 26.1142857 12.5714286 26.0571429 12.5142857 26"></polygon>
                        <polygon id="Path" fill="#57B12D" points="12.4571429 26.3428571 12.5714286 26.1142857 12.5714286 26.0571429 12.4571429 26.1142857"></polygon>
                        <polygon id="Path" fill="#57B12D" points="5.25714286 38.5714286 12.4571429 26.3428571 12.4571429 26.1142857 0.514285714 32.8 4.74285714 39.4285714 5.14285714 38.8"></polygon>
                        <polygon id="Path" fill="#57B12D" points="5.25714286 38.5714286 12.4571429 26.4 12.4571429 26.3428571"></polygon>
                        <polygon id="Path" fill="#57B12D" points="12.4571429 26.4 5.25714286 38.5714286 5.14285714 38.8 4.74285714 39.4285714 10.6285714 44.8571429 10.6857143 44.2285714"></polygon>
                        <path d="M24.5714286,17.8285714 L24.8,17.9428571" id="Path" fill="#57B12D"></path>
                        <path d="M24.8,35.5428571 L24.8,32.5142857" id="Path" fill="#A0D663"></path>
                        <path d="M24.8,10.3428571 L24.8,10.6857143" id="Path" fill="#AEDC7F"></path>
                        <path d="M24.8,17.9428571 L24.8,17.6571429" id="Path" fill="#45A828"></path>
                        <polygon id="Path" points="30 13.4285714 30 13.4285714 30 13.4285714 30.0571429 13.3714286 30 13.4285714 30 13.4285714"></polygon>
                        <path d="M28,2.4 L24.3428571,10.3428571" id="Path" fill="#6CBD4D"></path>
                        <polygon id="Path" fill="#57B12D" points="36.5142857 26.4 36.4 26.1142857 36.4 26.1142857 36.5142857 26.3428571"></polygon>
                        <polygon id="Path" fill="#57B12D" points="36.5142857 26.1142857 36.4 26.0571429 36.4571429 26"></polygon>
                        <polygon id="Path" fill="#57B12D" points="36.5142857 26.3428571 36.4 26.1142857 36.4 26.0571429 36.5142857 26.1142857"></polygon>
                        <polygon id="Path" fill="#57B12D" points="20.5714286 37.6 18.8 41.0857143 21.9428571 44.8571429 24.6285714 44.8571429 24.6285714 37.6"></polygon>
                        <polygon id="Path" fill="#359B2A" points="24.6285714 35.5428571 20.7428571 37.3714286 20.7428571 37.3714286 20.5714286 37.6 24.6285714 37.6"></polygon>
                        <polygon id="Path" fill="#45A828" points="24.6285714 18.9142857 22.5714286 28.2285714 24.6285714 28.2285714"></polygon>
                        <polygon id="Path" fill="#359B2A" points="22.5714286 28.2285714 24.6285714 32.5142857 24.6285714 28.2285714"></polygon>
                        <polygon id="Path" fill="#57B12D" points="24.6285714 18.9142857 24.6285714 17.9428571 19.6 20.5142857 15.6571429 34.4 22.5714286 28.2285714"></polygon>
                        <polygon id="Path" fill="#45A828" points="24.6285714 10.6857143 18.9714286 13.4285714 24.6285714 17.6571429"></polygon>
                        <polygon id="Path" fill="#A0D663" points="24.6285714 35.5428571 24.6285714 32.5142857 22.5714286 28.2285714 15.6571429 34.4 17.6571429 37.6 20.2285714 37.6 20.7428571 37.3714286 20.7428571 37.3714286"></polygon>
                        <polygon id="Path" fill="#57B12D" points="15.4857143 18.4 12.5142857 26 12.5714286 26.0571429 19.6 20.5142857 15.7142857 18.4"></polygon>
                        <polygon id="Path" fill="#57B12D" points="19.2571429 18.4 19.3714286 18.4 18.9142857 13.4285714 7.65714286 13.9428571 15.7142857 18.4"></polygon>
                        <polygon id="Path" fill="#45A828" points="18.9714286 13.4285714 18.9714286 13.4285714 18.9142857 13.4285714 19.3714286 18.4 19.6 20.5142857 24.6285714 17.9428571 24.6285714 17.6571429"></polygon>
                        <polygon id="Path" fill="#A0D663" points="18.9714286 13.4285714 20.9714286 2.4 15.7142857 0.0571428571"></polygon>
                        <polygon id="Path" fill="#45A828" points="18.9142857 13.4285714 18.9142857 13.4285714 5.82857143 7.31428571 6.68571429 10.3428571 7.65714286 13.9428571"></polygon>
                        <polygon id="Path" fill="#359B2A" points="18.9142857 13.3714286 18.9142857 13.3714286 12.5714286 5.08571429 5.82857143 7.31428571 18.9142857 13.4285714"></polygon>
                        <polygon id="Path" fill="#57B12D" points="18.9142857 13.3714286 18.9714286 13.4285714 15.7142857 0.0571428571 12.5714286 5.08571429"></polygon>
                        <polygon id="Path" fill="#359B2A" points="12.4571429 26.4 10.6857143 44.2285714 15.6571429 34.4 12.5714286 26.1142857"></polygon>
                        <polygon id="Path" fill="#A0D663" points="10.6285714 44.8571429 14.1142857 47.8285714 15.6571429 34.4 10.6857143 44.2285714"></polygon>
                        <polygon id="Path" fill="#57B12D" points="15.7142857 18.4 7.65714286 13.9428571 9.2 17.6571429 12.5142857 26 15.4857143 18.4"></polygon>
                        <polygon id="Path" fill="#A0D663" points="12.5142857 26 9.2 17.6571429 3.82857143 18.7428571 1.48571429 19.2 12.4571429 26.1142857"></polygon>
                        <polygon id="Path" fill="#45A828" points="3.6 24.5142857 0.514285714 32.8 12.4571429 26.1142857"></polygon>
                        <polygon id="Path" fill="#359B2A" points="1.48571429 19.2 3.6 24.5142857 12.4571429 26.1142857"></polygon>
                        <polygon id="Path" fill="#A0D663" points="7.65714286 13.9428571 6.68571429 10.3428571 6.68571429 10.3428571 2.05714286 16.6285714 3.82857143 18.7428571 9.2 17.6571429"></polygon>
                        <polyline id="Path" fill="#57B12D" points="24.5714286 10.3428571 28.2285714 2.4 24.7428571 0.0571428571 24.4571429 0.0571428571 20.9714286 2.4 24.6285714 10.3428571"></polyline>
                        <polyline id="Path" fill="#A0D663" points="15.6571429 34.4 17.6571429 37.6 20.2285714 37.6 20.7428571 37.3714286 18.8 41.0857143 14.9142857 41.0857143"></polyline>
                        <polygon id="Path" points="30.1142857 13.4285714 30.1142857 13.4285714 30.1142857 13.4285714 30.1714286 13.3714286 30.1714286 13.4285714 30.1714286 13.4285714"></polygon>
                        <path d="M24.2857143,17.8285714 L24.5142857,17.9428571" id="Path" fill="#57B12D"></path>
                        <path d="M24.5142857,35.5428571 L24.5142857,32.5142857" id="Path" fill="#A0D663"></path>
                        <path d="M24.5142857,10.3428571 L24.5142857,10.6857143" id="Path" fill="#AEDC7F"></path>
                        <polygon id="Path" fill="#AEDC7F" points="30.1142857 13.4285714 30.1142857 13.4285714 24.5142857 10.6857143 24.5142857 10.3428571 28.1142857 2.4"></polygon>
                        <polygon id="Path" fill="#359B2A" points="29.8285714 18.4 33.3714286 18.4 29.4857143 20.5142857 29.7142857 18.4"></polygon>
                        <polygon id="Path" fill="#A0D663" points="36.5714286 26.0571429 36.5142857 26.1142857 36.5142857 26.1142857 33.4285714 34.4 29.4857143 20.5142857"></polygon>
                        <polygon id="Path" fill="#57B12D" points="36.6857143 26.4 36.5142857 26.1142857 36.5142857 26.1142857 36.6857143 26.3428571"></polygon>
                        <polygon id="Path" fill="#57B12D" points="36.6285714 26.1142857 36.5714286 26.0571429 36.5714286 26"></polygon>
                        <polygon id="Path" fill="#57B12D" points="36.6857143 26.3428571 36.5142857 26.1142857 36.5714286 26.0571429 36.6285714 26.1142857"></polygon>
                        <polygon id="Path" fill="#57B12D" points="43.8857143 38.5714286 36.6857143 26.3428571 36.6285714 26.1142857 48.5714286 32.8 44.3428571 39.4285714 44 38.8"></polygon>
                        <polygon id="Path" fill="#57B12D" points="43.8857143 38.5714286 36.6857143 26.4 36.6857143 26.3428571"></polygon>
                        <polygon id="Path" fill="#57B12D" points="36.6857143 26.4 43.8857143 38.5714286 44 38.8 44.3428571 39.4285714 38.4571429 44.8571429 38.4 44.2285714"></polygon>
                        <path d="M24.2857143,17.8285714 L24.0571429,17.9428571" id="Path" fill="#57B12D"></path>
                        <path d="M24.0571429,35.5428571 L24.0571429,32.5142857" id="Path" fill="#A0D663"></path>
                        <path d="M24.0571429,10.3428571 L24.0571429,10.6857143" id="Path" fill="#AEDC7F"></path>
                        <path d="M24.0571429,17.9428571 L24.0571429,17.6571429" id="Path" fill="#45A828"></path>
                        <path d="M21.0857143,2.4 L24.7428571,10.3428571" id="Path" fill="#6CBD4D"></path>
                        <polygon id="Path" fill="#57B12D" points="28.5142857 37.6 30.2857143 41.0857143 27.1428571 44.8571429 24.5142857 44.8571429 24.5142857 37.6"></polygon>
                        <polygon id="Path" fill="#359B2A" points="24.5142857 35.5428571 28.4 37.3714286 28.4 37.3714286 28.5142857 37.6 24.5142857 37.6"></polygon>
                        <polygon id="Path" fill="#45A828" points="24.5142857 18.9142857 26.5142857 28.2285714 24.5142857 28.2285714"></polygon>
                        <polygon id="Path" fill="#359B2A" points="26.5142857 28.2285714 24.5142857 32.5142857 24.5142857 28.2285714"></polygon>
                        <polygon id="Path" fill="#57B12D" points="24.5142857 18.9142857 24.5142857 17.9428571 29.4857143 20.5142857 33.4285714 34.4 26.5142857 28.2285714"></polygon>
                        <polygon id="Path" fill="#45A828" points="24.5142857 10.6857143 30.1142857 13.4285714 24.5142857 17.6571429"></polygon>
                        <polygon id="Path" fill="#A0D663" points="24.5142857 35.5428571 24.5142857 32.5142857 26.5142857 28.2285714 33.4285714 34.4 31.4857143 37.6 28.8571429 37.6 28.4 37.3714286 28.4 37.3714286"></polygon>
                        <polygon id="Path" fill="#57B12D" points="33.6571429 18.4 36.5714286 26 36.5714286 26.0571429 29.4857143 20.5142857 33.3714286 18.4"></polygon>
                        <polygon id="Path" fill="#57B12D" points="29.8285714 18.4 29.7142857 18.4 30.1714286 13.4285714 41.4285714 13.9428571 33.3714286 18.4"></polygon>
                        <polygon id="Path" fill="#45A828" points="30.1142857 13.4285714 30.1142857 13.4285714 30.1714286 13.4285714 29.7142857 18.4 29.4857143 20.5142857 24.5142857 17.9428571 24.5142857 17.6571429"></polygon>
                        <polygon id="Path" fill="#A0D663" points="30.1142857 13.4285714 28.1142857 2.4 33.4285714 0.0571428571"></polygon>
                        <polygon id="Path" fill="#45A828" points="30.1714286 13.4285714 30.1714286 13.4285714 43.2571429 7.31428571 42.4 10.3428571 41.4285714 13.9428571"></polygon>
                        <polygon id="Path" fill="#359B2A" points="30.1714286 13.3714286 30.1714286 13.3714286 36.5142857 5.08571429 43.2571429 7.31428571 30.1714286 13.4285714"></polygon>
                        <polygon id="Path" fill="#57B12D" points="30.1714286 13.3714286 30.1142857 13.4285714 33.4285714 0.0571428571 36.5142857 5.08571429"></polygon>
                        <polygon id="Path" fill="#359B2A" points="36.6857143 26.4 38.4 44.2285714 33.4285714 34.4 36.5142857 26.1142857"></polygon>
                        <polygon id="Path" fill="#A0D663" points="38.4571429 44.8571429 34.9714286 47.8285714 33.4285714 34.4 38.4 44.2285714"></polygon>
                        <polygon id="Path" fill="#57B12D" points="33.3714286 18.4 41.4285714 13.9428571 39.9428571 17.6571429 36.5714286 26 33.6571429 18.4"></polygon>
                        <polygon id="Path" fill="#A0D663" points="36.5714286 26 39.9428571 17.6571429 45.2571429 18.7428571 47.6 19.2 36.6285714 26.1142857"></polygon>
                        <polygon id="Path" fill="#45A828" points="45.4857143 24.5142857 48.5714286 32.8 36.6285714 26.1142857"></polygon>
                        <polygon id="Path" fill="#359B2A" points="47.6 19.2 45.4857143 24.5142857 36.6285714 26.1142857"></polygon>
                        <polygon id="Path" fill="#A0D663" points="41.4285714 13.9428571 42.4 10.3428571 42.4 10.3428571 47.0285714 16.6285714 45.2571429 18.7428571 39.9428571 17.6571429"></polygon>
                        <polyline id="Path" fill="#A0D663" points="33.4285714 34.4 31.4857143 37.6 28.8571429 37.6 28.4 37.3714286 30.2857143 41.0857143 34.2285714 41.0857143"></polyline>
                    </g>
                    <g id="XMLID_28_" transform="translate(68.571429, 6.285714)" fill="#57B12D">
                        <polygon id="XMLID_29_" points="4.11428571 2.05714286 4.11428571 14.1714286 8.97142857 14.1714286 8.97142857 17.6 0.114285714 17.6 0.114285714 2.05714286"></polygon>
                        <path d="M14,12.9714286 C14,14.5714286 14.7428571,15.3714286 16.2857143,15.3714286 C17.0857143,15.3714286 17.7142857,15.0285714 18.1142857,14.4 L21.7142857,14.4 C20.9714286,16.8 19.1428571,18 16.2857143,18 C15.3714286,18 14.5714286,17.8857143 13.8285714,17.6 C13.0857143,17.3142857 12.4571429,16.9714286 11.9428571,16.4571429 C11.4285714,15.9428571 11.0285714,15.3714286 10.7428571,14.6857143 C10.4571429,14 10.2857143,13.2571429 10.2857143,12.4 C10.2857143,11.5428571 10.4,10.7428571 10.6857143,10 C10.9714286,9.31428571 11.3714286,8.68571429 11.8857143,8.17142857 C12.4,7.65714286 13.0285714,7.31428571 13.7142857,7.02857143 C14.4,6.74285714 15.2571429,6.62857143 16.1714286,6.62857143 C17.0857143,6.62857143 17.8857143,6.74285714 18.5714286,7.02857143 C19.2571429,7.31428571 19.8857143,7.65714286 20.4,8.17142857 C20.9142857,8.68571429 21.2571429,9.31428571 21.5428571,10.0571429 C21.8285714,10.8 21.9428571,11.6 21.9428571,12.5142857 L21.9428571,12.9142857 L14,12.9142857 L14,12.9714286 Z M18.4,10.8 C18.2857143,10.2857143 18,9.88571429 17.6571429,9.54285714 C17.2571429,9.2 16.8,9.08571429 16.2857143,9.08571429 C15.7142857,9.08571429 15.2571429,9.25714286 14.8571429,9.54285714 C14.5142857,9.82857143 14.2857143,10.2857143 14.1714286,10.8 L18.4,10.8 Z" id="XMLID_31_" fill-rule="nonzero"></path>
                        <path d="M23.5428571,12.2285714 C23.5428571,11.4285714 23.7142857,10.7428571 24,10.0571429 C24.3428571,9.37142857 24.7428571,8.8 25.3142857,8.28571429 C25.8857143,7.77142857 26.5714286,7.37142857 27.3142857,7.08571429 C28.1142857,6.8 28.9142857,6.62857143 29.8285714,6.62857143 C30.7428571,6.62857143 31.6,6.74285714 32.3428571,7.02857143 C33.1428571,7.31428571 33.7714286,7.71428571 34.3428571,8.22857143 C34.9142857,8.74285714 35.3714286,9.31428571 35.6571429,10 C36,10.6857143 36.1142857,11.4857143 36.1142857,12.2857143 C36.1142857,13.0857143 35.9428571,13.8857143 35.6571429,14.5714286 C35.3142857,15.2571429 34.9142857,15.8857143 34.3428571,16.3428571 C33.7714286,16.8571429 33.0857143,17.2571429 32.3428571,17.4857143 C31.6,17.7142857 30.6857143,17.8857143 29.7714286,17.8857143 C28.8571429,17.8857143 28.0571429,17.7714286 27.2571429,17.4857143 C26.4571429,17.2 25.8285714,16.8 25.2571429,16.2857143 C24.6857143,15.7714286 24.2857143,15.1428571 23.9428571,14.4571429 C23.7142857,13.8857143 23.5428571,13.0857143 23.5428571,12.2285714 Z M27.4857143,12.2857143 C27.4857143,12.6285714 27.5428571,12.9714286 27.6571429,13.2571429 C27.7714286,13.5428571 27.9428571,13.8285714 28.1714286,14.0571429 C28.4,14.2857143 28.6285714,14.4571429 28.9142857,14.5714286 C29.2,14.6857143 29.5428571,14.7428571 29.8285714,14.7428571 C30.1714286,14.7428571 30.4571429,14.6857143 30.7428571,14.5714286 C31.0285714,14.4571429 31.3142857,14.2857143 31.4857143,14.0571429 C31.7142857,13.8285714 31.8857143,13.6 32,13.2571429 C32.1142857,12.9714286 32.1714286,12.6285714 32.1714286,12.2857143 C32.1714286,11.9428571 32.1142857,11.6571429 32,11.3714286 C31.8857143,11.0857143 31.7142857,10.8 31.4857143,10.5714286 C31.2571429,10.3428571 31.0285714,10.1714286 30.7428571,10.0571429 C30.4571429,9.94285714 30.1142857,9.88571429 29.8285714,9.88571429 C29.4857143,9.88571429 29.2,9.94285714 28.9142857,10.0571429 C28.6285714,10.1714286 28.3428571,10.3428571 28.1714286,10.5714286 C27.9428571,10.8 27.7714286,11.0285714 27.6571429,11.3142857 C27.5428571,11.6571429 27.4857143,11.9428571 27.4857143,12.2857143 Z" id="XMLID_34_" fill-rule="nonzero"></path>
                        <path d="M42.1142857,0.514285714 L42.1142857,8.05714286 C42.9714286,7.14285714 44.1142857,6.68571429 45.4285714,6.68571429 C46.2285714,6.68571429 46.9142857,6.85714286 47.6,7.14285714 C48.2285714,7.42857143 48.8,7.82857143 49.2571429,8.34285714 C49.7142857,8.85714286 50.0571429,9.42857143 50.3428571,10.1142857 C50.6285714,10.8 50.7428571,11.5428571 50.7428571,12.2857143 C50.7428571,13.0857143 50.6285714,13.8285714 50.3428571,14.5142857 C50.0571429,15.2 49.7142857,15.7714286 49.2,16.2857143 C48.6857143,16.8 48.1714286,17.2 47.4857143,17.4857143 C46.8571429,17.7714286 46.1142857,17.9428571 45.3714286,17.9428571 C44,17.9428571 42.9142857,17.4285714 42.1142857,16.4571429 L42.1142857,17.6571429 L38.4,17.6571429 L38.4,0.514285714 L42.1142857,0.514285714 Z M46.8,12.3428571 C46.8,12 46.7428571,11.7142857 46.6285714,11.4285714 C46.5142857,11.1428571 46.3428571,10.8571429 46.1142857,10.6857143 C45.8857143,10.4571429 45.6571429,10.2857143 45.3714286,10.1714286 C45.0857143,10.0571429 44.7428571,10 44.4,10 C44.0571429,10 43.7714286,10.0571429 43.4857143,10.1714286 C43.2,10.2857143 42.9714286,10.4571429 42.7428571,10.6857143 C42.5142857,10.9142857 42.3428571,11.1428571 42.2285714,11.4857143 C42.1142857,11.7714286 42.0571429,12.1142857 42.0571429,12.4 C42.0571429,12.6857143 42.1142857,13.0285714 42.2285714,13.3142857 C42.3428571,13.6 42.5142857,13.8285714 42.7428571,14.0571429 C42.9714286,14.2857143 43.2,14.4571429 43.4857143,14.5714286 C43.7714286,14.6857143 44.1142857,14.7428571 44.4,14.7428571 C44.6857143,14.7428571 45.0285714,14.6857143 45.3142857,14.5714286 C45.6,14.4571429 45.8285714,14.2857143 46.0571429,14.0571429 C46.2857143,13.8285714 46.4571429,13.6 46.5714286,13.3142857 C46.7428571,12.9714286 46.8,12.6857143 46.8,12.3428571 Z" id="XMLID_37_" fill-rule="nonzero"></path>
                        <path d="M52.5714286,2.97142857 C52.5714286,2.68571429 52.6285714,2.4 52.7428571,2.17142857 C52.8571429,1.94285714 53.0285714,1.71428571 53.2,1.48571429 C53.3714286,1.31428571 53.6,1.14285714 53.8857143,1.02857143 C54.1142857,0.914285714 54.4,0.857142857 54.6857143,0.857142857 C54.9714286,0.857142857 55.2571429,0.914285714 55.4857143,1.02857143 C55.7142857,1.14285714 55.9428571,1.31428571 56.1714286,1.48571429 C56.3428571,1.65714286 56.5142857,1.88571429 56.6285714,2.17142857 C56.7428571,2.4 56.8,2.68571429 56.8,2.97142857 C56.8,3.25714286 56.7428571,3.54285714 56.6285714,3.77142857 C56.5142857,4 56.3428571,4.22857143 56.1714286,4.45714286 C56,4.62857143 55.7714286,4.8 55.4857143,4.91428571 C55.2,5.02857143 54.9714286,5.08571429 54.6857143,5.08571429 C54.4,5.08571429 54.1142857,5.02857143 53.8857143,4.91428571 C53.6571429,4.8 53.4285714,4.62857143 53.2,4.45714286 C52.9714286,4.28571429 52.8571429,4.05714286 52.7428571,3.77142857 C52.6285714,3.48571429 52.5714286,3.25714286 52.5714286,2.97142857 Z M56.5142857,7.02857143 L56.5142857,17.6 L52.8,17.6 L52.8,7.02857143 L56.5142857,7.02857143 Z" id="XMLID_40_" fill-rule="nonzero"></path>
                        <polygon id="XMLID_43_" points="63.2 10.1714286 63.2 17.6 59.4857143 17.6 59.4857143 10.1714286 58.2857143 10.1714286 58.2857143 7.08571429 59.5428571 7.08571429 59.5428571 3.94285714 63.2571429 3.94285714 63.2571429 7.08571429 65.3714286 7.08571429 65.3714286 10.1714286"></polygon>
                        <path d="M82.6285714,6.05714286 C82.1714286,5.71428571 81.7714286,5.42857143 81.3142857,5.25714286 C80.8571429,5.08571429 80.4571429,4.97142857 80.0571429,4.97142857 C79.5428571,4.97142857 79.0857143,5.08571429 78.8,5.31428571 C78.4571429,5.54285714 78.2857143,5.88571429 78.2857143,6.28571429 C78.2857143,6.57142857 78.3428571,6.8 78.5142857,6.97142857 C78.6857143,7.14285714 78.9142857,7.31428571 79.1428571,7.42857143 C79.4285714,7.54285714 79.7142857,7.65714286 80.0571429,7.77142857 C80.4,7.88571429 80.7428571,7.94285714 81.0285714,8.05714286 C82.3428571,8.51428571 83.3142857,9.08571429 83.9428571,9.82857143 C84.5714286,10.5714286 84.8571429,11.5428571 84.8571429,12.6857143 C84.8571429,13.4857143 84.7428571,14.2285714 84.4571429,14.8571429 C84.1714286,15.4857143 83.7714286,16.0571429 83.2571429,16.5142857 C82.7428571,16.9714286 82.1142857,17.3142857 81.3714286,17.6 C80.6285714,17.8285714 79.7714286,18 78.8571429,18 C76.9142857,18 75.0857143,17.4285714 73.4285714,16.2285714 L75.1428571,12.9714286 C75.7714286,13.4857143 76.3428571,13.8857143 76.9142857,14.1714286 C77.4857143,14.4571429 78.1142857,14.5714286 78.6857143,14.5714286 C79.3714286,14.5714286 79.8285714,14.4 80.1714286,14.1142857 C80.5142857,13.8285714 80.6285714,13.4857143 80.6285714,13.0857143 C80.6285714,12.8571429 80.5714286,12.6285714 80.5142857,12.4571429 C80.4571429,12.2857143 80.2857143,12.1142857 80.1142857,12 C79.9428571,11.8285714 79.6571429,11.7142857 79.3714286,11.6 C79.0857143,11.4857143 78.6857143,11.3142857 78.2285714,11.2 C77.7142857,11.0285714 77.2,10.8571429 76.6857143,10.6285714 C76.1714286,10.4571429 75.7142857,10.1714286 75.3714286,9.82857143 C74.9714286,9.48571429 74.6857143,9.08571429 74.4,8.57142857 C74.1714286,8.05714286 74.0571429,7.42857143 74.0571429,6.68571429 C74.0571429,5.94285714 74.1714286,5.2 74.4571429,4.57142857 C74.6857143,3.94285714 75.0857143,3.42857143 75.5428571,2.97142857 C76,2.51428571 76.5714286,2.17142857 77.2571429,1.94285714 C77.9428571,1.71428571 78.6857143,1.6 79.4857143,1.6 C80.2285714,1.6 81.0285714,1.71428571 81.8857143,1.94285714 C82.7428571,2.17142857 83.5428571,2.45714286 84.2857143,2.85714286 L82.6285714,6.05714286 Z" id="XMLID_45_"></path>
                        <polygon id="XMLID_47_" points="90.8571429 16.1714286 85.7714286 7.08571429 90.1142857 7.08571429 92.9142857 12.5142857 95.6571429 7.08571429 99.9428571 7.08571429 91.4285714 22.8571429 87.2571429 22.8571429"></polygon>
                        <path d="M107.657143,9.77142857 C106.971429,9.42857143 106.285714,9.25714286 105.657143,9.25714286 C105.314286,9.25714286 105.028571,9.31428571 104.8,9.48571429 C104.571429,9.6 104.457143,9.82857143 104.457143,10.0571429 C104.457143,10.1714286 104.457143,10.2857143 104.514286,10.3428571 C104.571429,10.4 104.628571,10.5142857 104.742857,10.5714286 C104.857143,10.6285714 105.028571,10.6857143 105.257143,10.7428571 C105.485714,10.8 105.771429,10.8571429 106.171429,10.9714286 C107.2,11.2 107.942857,11.5428571 108.457143,12.0571429 C108.971429,12.5714286 109.2,13.2571429 109.2,14.0571429 C109.2,14.6857143 109.085714,15.2571429 108.857143,15.7142857 C108.628571,16.2285714 108.285714,16.6285714 107.828571,16.9714286 C107.371429,17.3142857 106.857143,17.5428571 106.228571,17.7714286 C105.6,17.9428571 104.914286,18.0571429 104.171429,18.0571429 C102.742857,18.0571429 101.314286,17.6571429 99.9428571,16.8571429 L101.314286,14.2285714 C102.342857,14.9142857 103.371429,15.3142857 104.285714,15.3142857 C104.628571,15.3142857 104.914286,15.2571429 105.142857,15.0857143 C105.371429,14.9142857 105.485714,14.7428571 105.485714,14.5142857 C105.485714,14.4 105.485714,14.2857143 105.428571,14.1714286 C105.371429,14.0571429 105.314286,14 105.2,13.9428571 C105.085714,13.8857143 104.914286,13.7714286 104.742857,13.7142857 C104.514286,13.6571429 104.228571,13.6 103.885714,13.5428571 C102.742857,13.3142857 101.942857,12.9714286 101.485714,12.5142857 C101.028571,12.0571429 100.8,11.4285714 100.8,10.6285714 C100.8,10.0571429 100.914286,9.48571429 101.142857,9.02857143 C101.371429,8.57142857 101.657143,8.17142857 102.114286,7.82857143 C102.514286,7.48571429 103.028571,7.25714286 103.6,7.08571429 C104.171429,6.91428571 104.857143,6.8 105.542857,6.8 C106.685714,6.8 107.828571,7.02857143 108.914286,7.48571429 L107.657143,9.77142857 Z" id="XMLID_49_"></path>
                        <polygon id="XMLID_51_" points="115.6 10.1714286 115.6 17.6 111.885714 17.6 111.885714 10.1714286 110.628571 10.1714286 110.628571 7.08571429 111.885714 7.08571429 111.885714 3.94285714 115.6 3.94285714 115.6 7.08571429 117.714286 7.08571429 117.714286 10.1714286"></polygon>
                        <path d="M122.685714,12.9714286 C122.685714,14.5714286 123.428571,15.3714286 124.971429,15.3714286 C125.771429,15.3714286 126.4,15.0285714 126.8,14.4 L130.4,14.4 C129.657143,16.8 127.828571,18 124.971429,18 C124.057143,18 123.257143,17.8857143 122.514286,17.6 C121.771429,17.3142857 121.142857,16.9714286 120.628571,16.4571429 C120.114286,15.9428571 119.714286,15.3714286 119.428571,14.6857143 C119.142857,14 118.971429,13.2571429 118.971429,12.4 C118.971429,11.5428571 119.085714,10.7428571 119.371429,10 C119.657143,9.31428571 120.057143,8.68571429 120.571429,8.17142857 C121.085714,7.65714286 121.714286,7.31428571 122.4,7.02857143 C123.085714,6.74285714 123.942857,6.62857143 124.857143,6.62857143 C125.771429,6.62857143 126.571429,6.74285714 127.257143,7.02857143 C127.942857,7.31428571 128.571429,7.65714286 129.085714,8.17142857 C129.6,8.68571429 129.942857,9.31428571 130.228571,10.0571429 C130.514286,10.8 130.628571,11.6 130.628571,12.5142857 L130.628571,12.9142857 L122.685714,12.9142857 L122.685714,12.9714286 Z M127.028571,10.8 C126.914286,10.2857143 126.628571,9.88571429 126.285714,9.54285714 C125.885714,9.2 125.428571,9.08571429 124.914286,9.08571429 C124.342857,9.08571429 123.885714,9.25714286 123.485714,9.54285714 C123.142857,9.82857143 122.914286,10.2857143 122.8,10.8 L127.028571,10.8 Z" id="XMLID_53_" fill-rule="nonzero"></path>
                        <path d="M132.628571,7.02857143 L136.342857,7.02857143 L136.342857,8.34285714 C137.371429,7.37142857 138.514286,6.85714286 139.771429,6.85714286 C141.314286,6.85714286 142.514286,7.54285714 143.371429,8.85714286 C144.228571,7.54285714 145.428571,6.85714286 146.971429,6.85714286 C147.485714,6.85714286 147.942857,6.91428571 148.342857,7.08571429 C148.8,7.25714286 149.142857,7.42857143 149.485714,7.77142857 C149.828571,8.11428571 150.057143,8.45714286 150.228571,8.97142857 C150.4,9.48571429 150.514286,10.0571429 150.514286,10.7428571 L150.514286,17.6 L146.8,17.6 L146.8,12.4 C146.8,11.8857143 146.742857,11.4285714 146.685714,11.0857143 C146.628571,10.7428571 146.514286,10.4571429 146.342857,10.2857143 C146.171429,10.1142857 146.057143,9.94285714 145.828571,9.88571429 C145.6,9.82857143 145.428571,9.77142857 145.2,9.77142857 C144,9.77142857 143.428571,10.6285714 143.428571,12.4 L143.428571,17.6 L139.714286,17.6 L139.714286,12.4 C139.714286,11.8857143 139.657143,11.4285714 139.6,11.0857143 C139.542857,10.7428571 139.428571,10.4571429 139.314286,10.2285714 C139.2,10 139.028571,9.88571429 138.8,9.82857143 C138.571429,9.77142857 138.342857,9.71428571 138.057143,9.71428571 C137.828571,9.71428571 137.6,9.77142857 137.371429,9.82857143 C137.142857,9.88571429 136.971429,10.0571429 136.8,10.2285714 C136.628571,10.4 136.514286,10.6857143 136.457143,11.0285714 C136.342857,11.3714286 136.342857,11.8285714 136.342857,12.4 L136.342857,17.6 L132.628571,17.6 L132.628571,7.02857143 Z" id="XMLID_56_"></path>
                    </g>
                </g>
            </g>
        </g>
    </g>
</svg>